<svg width="755" height="670" viewBox="0 0 755 670" fill="none" xmlns="http://www.w3.org/2000/svg">
<g clip-path="url(#clip0_26_2163)">
<g style="mix-blend-mode:color-dodge">
<path d="M-401.314 759.28C-243.696 731.66 -82.6689 740.305 74.3888 768.257C142.548 780.394 210.812 788.395 279.387 774.471C366.456 756.786 430.668 704.435 510.381 670.976C639.655 616.713 742.601 748.348 863.189 768.361C910.797 776.259 950.051 756.1 995.622 747.309C1054.12 736.024 1104.66 752.629 1157.21 778.004" stroke="#4D4D4D" stroke-miterlimit="10"/>
<path d="M-401.314 731.452C-243.571 699.073 -88.8407 718.235 66.5754 753.294C134.943 768.715 203.497 777.152 272.467 760.09C308.271 751.237 342.102 736.793 374.768 719.835C423.665 694.46 466.929 652.064 515.992 629.391C647.864 568.436 741.957 722.142 859.262 747.662C912.646 759.28 948.16 733.759 997.389 721.227C1055.91 706.347 1106.92 730.351 1157.21 758.76" stroke="#4D4D4D" stroke-miterlimit="10"/>
<path d="M-401.314 702.918C-246.688 666.196 -104.862 696.85 44.9638 737.645C114.536 756.578 184.067 768.029 254.908 748.39C292.395 737.998 327.285 720.874 360.783 701.359C413.274 670.789 458.555 622.054 511.399 594.331C650.191 521.531 732.502 700.029 852.446 728.459C908.823 741.822 941.843 711.189 992.048 695.374C1052.81 676.234 1106.82 708.031 1157.19 739.516" stroke="#4D4D4D" stroke-miterlimit="10"/>
<path d="M-401.314 674.072C-253.649 633.381 -128.24 673.574 11.6946 719.585C81.1008 742.404 150.32 759.487 222.656 740.783C332.709 712.332 404.443 625.754 496.936 567.418C647.136 472.713 714.07 683.611 845.11 710.462C901.841 722.1 933.925 685.918 984.068 668.44C1047.57 646.307 1106.19 686.168 1157.21 720.23" stroke="#4D4D4D" stroke-miterlimit="10"/>
<path d="M-401.314 645.372C-258.034 599.09 -148.023 651.108 -16.442 702.669C54.6059 730.496 126.464 753.066 202.167 730.06C314.402 695.956 387.548 603.06 480.333 538.448C638.076 428.614 689.861 663.307 825.348 690.906C883.014 702.648 918.61 662.497 967.984 642.899C1037.72 615.217 1101.75 662.33 1157.21 701.048" stroke="#4D4D4D" stroke-miterlimit="10"/>
<path d="M-401.314 617.191C-337.124 592.731 -274.471 587.099 -208.078 606.842C-146.776 625.068 -94.1396 661.873 -36.2872 687.913C32.0385 718.671 102.234 745.646 177.002 721.144C295.762 682.219 367.246 576.521 464.165 506.401C621.098 392.847 666.753 634.898 795.591 667.547C860.82 684.069 898.62 636.166 954.082 614.261C1029.04 584.646 1099.07 639.927 1157.21 681.803" stroke="#4D4D4D" stroke-miterlimit="10"/>
<path d="M-401.314 589.988C-343.545 563.823 -285.984 555.676 -224.973 576.126C-164.876 596.264 -116.063 638.659 -60.7041 668.004C3.69413 702.149 69.9626 736.419 144.065 714.556C268.311 677.938 346.299 559.23 442.72 482.419C607.134 351.428 634.419 614.843 769.117 645.164C838.232 660.73 881.268 605.179 940.617 583.524C1020.45 554.408 1097.03 618.023 1157.19 662.538" stroke="#4D4D4D" stroke-miterlimit="10"/>
<path d="M-401.314 564.155C-267.801 492.457 -187.61 577.269 -78.8661 645.809C-17.107 684.734 49.3901 729.769 125.072 704.705C247.634 664.118 328.262 542.085 421.171 460.93C481.143 408.559 538.559 396.401 589.928 462.655C634.481 520.097 663.095 602.831 742.372 619.477C811.405 633.963 860.155 577.103 919.379 553.93C1006.53 519.806 1092.81 594.414 1157.21 643.315" stroke="#4D4D4D" stroke-miterlimit="10"/>
<path d="M-401.314 540.131C-271.998 458.852 -191.412 543.248 -89.4225 619.852C-35.0196 660.709 26.5733 717.299 100.073 698.117C144.813 686.438 184.483 653.249 218.646 623.946C284.312 567.647 338.818 501.227 401.159 441.748C460.924 384.721 519.836 362.277 571.08 437.508C609.274 493.579 638.575 580.199 715.358 592.44C788.359 604.078 841.785 541.44 905.81 519.785C998.157 488.529 1091.25 572.53 1157.21 624.029" stroke="#4D4D4D" stroke-miterlimit="10"/>
<path d="M-401.314 518.351C-350.901 482.086 -295.272 459.33 -233.846 481.421C-179.152 501.102 -136.635 546.823 -94.5968 584.917C-47.2177 627.853 12.6297 704.082 85.3608 689.098C126.298 680.66 162.31 649.321 192.899 622.636C260.414 563.719 319.597 495.47 380.296 429.819C437.109 368.345 500.074 324.12 553.064 409.681C588.744 467.268 616.444 558.357 697.362 561.557C769.179 564.405 823.145 507.046 887.876 485.889C987.165 453.448 1087.89 548.797 1157.23 604.805" stroke="#4D4D4D" stroke-miterlimit="10"/>
<path d="M-401.314 498.359C-349.571 458.041 -291.927 431.274 -226.573 454.508C-171.422 474.106 -125.747 518.788 -84.9755 558.96C-42.5837 600.753 14.3129 682.843 83.7192 668.835C122.558 661 156.72 629.598 185.356 604.119C250.835 545.825 309.31 479.364 368.472 414.877C422.646 355.834 486.276 302.008 540.014 387.174C575.174 442.891 601.877 531.818 681.278 532.92C752.472 533.896 811.841 482.211 878.317 464.505C981.783 436.926 1082.9 527.329 1157.21 585.083" stroke="#4D4D4D" stroke-miterlimit="10"/>
<path d="M-401.314 476.08C-344.231 431.17 -283.324 407.021 -213.543 438.194C-155.836 463.985 -105.299 512.782 -60.6418 555.988C-20.5773 594.767 29.0669 660.211 92.2391 639.823C130.787 627.375 164.305 594.123 193.065 567.397C250.71 513.841 304.282 455.838 358.664 399.02C410.49 344.84 473.371 292.137 529.083 367.68C568.711 421.423 593.939 507.378 673.049 511.306C743.515 514.797 811.654 468.308 879.585 455.838C982.323 436.968 1077.87 507.794 1157.23 562.368" stroke="#4D4D4D" stroke-miterlimit="10"/>
<path d="M-401.314 451.329C-339.929 404.485 -277.381 383.89 -205.668 420.883C-150.724 449.209 -100.02 494.826 -54.8233 536.453C-12.7015 575.253 39.0207 642.109 102.671 612.515C135.899 597.074 163.246 567.667 189.346 542.791C244.247 490.42 296.177 434.89 349.791 381.23C405.253 325.721 468.093 282.681 525.634 356.478C565.241 407.291 593.772 487.282 668.872 490.607C737.967 493.683 806.604 460.577 874.037 449.562C978.125 432.562 1070.54 485.64 1157.23 536.785" stroke="#4D4D4D" stroke-miterlimit="10"/>
<path d="M-401.314 424.561C-330.516 373.478 -262.98 361.923 -187.589 409.452C-133.414 443.598 -83.3339 489.859 -34.8534 531.569C5.62668 566.4 51.1564 621.078 107.804 589.406C138.143 572.447 163.391 542.209 187.558 517.749C239.011 465.648 289.112 412.279 342.06 361.674C396.92 309.24 459.718 271.396 518.111 337.65C561.708 387.111 591.902 466.001 666.815 473.15C732.834 479.447 804.776 453.635 869.714 443.577C973.491 427.512 1064.8 464.193 1157.19 508.978" stroke="#4D4D4D" stroke-miterlimit="10"/>
<path d="M-401.314 396.276C-324.614 344.674 -254.086 339.146 -177.219 393.138C-119.222 433.871 -67.1045 485.349 -11.9535 529.989C25.9706 560.664 67.9261 602.727 115.326 567.48C146.663 544.183 172.243 509.082 198.26 480.486C242.252 432.167 287.346 384.493 335.743 340.559C395.05 286.712 459.365 261.275 519.088 326.178C562.81 373.686 596.307 447.837 668.145 455.88C736.138 463.486 809.659 445.634 877.008 436.386C976.047 422.795 1064.2 444.928 1157.21 479.364" stroke="#4D4D4D" stroke-miterlimit="10"/>
<path d="M-401.314 366.911C-313.871 312.233 -239.54 318.052 -159.265 382.145C-98.3581 430.775 -46.4488 487.365 17.0351 533.252C60.5906 564.716 91.9898 582.485 131.743 538.635C199.299 464.11 254.014 379.173 333.166 314.914C391.268 267.759 455.188 250.177 513.082 305.063C561.999 351.428 594.915 422.608 665.527 439.316C730.715 454.716 812.527 439.524 878.068 430.588C974.8 417.391 1062.1 425.143 1157.23 448.585" stroke="#4D4D4D" stroke-miterlimit="10"/>
<path d="M-401.314 336.964C-303.398 279.834 -223.663 298.392 -141.103 371.525C-81.9624 423.917 -32.7754 484.58 34.3451 527.62C83.6153 559.23 109.549 564.82 143.255 514.486C196.66 434.744 250.419 353.236 328.221 294.423C391.123 246.852 454.856 236.17 516.324 291.014C567.506 336.694 603.934 410.18 676.312 426.348C740.502 440.688 815.415 433.871 880.125 425.06C974.073 412.258 1062.33 406.48 1157.23 417.059" stroke="#4D4D4D" stroke-miterlimit="10"/>
<path d="M-401.314 306.913C-294.587 247.995 -211.091 277.028 -126.495 357.642C-66.6265 414.689 -17.2732 484.372 56.4346 524.814C111.149 554.845 130.35 539.237 156.45 487.76C197.969 405.899 250.481 323.165 327.389 269.837C392.494 224.678 458.347 223.285 519.503 275.178C572.847 320.463 611.706 392.037 683.169 412.112C836.445 455.173 1003.25 390.811 1157.23 385.47" stroke="#4D4D4D" stroke-miterlimit="10"/>
<path d="M-401.314 277.215C-348.221 248.93 -298.306 232.138 -238.895 252.734C-189.75 269.775 -149.498 305.541 -113.445 341.972C-53.9713 402.116 -3.12182 483.042 76.1136 518.788C135.545 545.597 149.614 509.477 169.667 459.08C202.354 376.866 251.707 292.635 328.823 244.504C496.894 139.574 557.552 351.886 691.274 397.918C847.438 451.682 1004.52 383.849 1157.23 354.276" stroke="#4D4D4D" stroke-miterlimit="10"/>
<path d="M-401.314 248.349C-345.935 219.046 -294.898 202.711 -234.407 224.969C-183.661 243.631 -142.641 281.766 -105.881 320.4C-48.0697 381.147 11.7153 486.305 97.9537 510.496C158.321 527.433 167.838 470.947 183.132 425.475C209.897 345.88 256.03 258.116 333.208 216.011C493.424 128.601 574.114 325.139 695.076 380.69C853.776 453.573 1007.45 378.84 1157.21 324.017" stroke="#4D4D4D" stroke-miterlimit="10"/>
<path d="M-401.314 220.812C-345.395 190.387 -295.023 173.865 -233.472 195.416C-182.435 213.289 -140.729 253.17 -104.447 292.033C-45.576 355.107 17.5338 474.916 109.071 492.789C171.287 504.947 180.015 442.787 193.606 396.11C216.942 316.036 258.96 227.4 339.608 190.158C500.053 116.07 586.582 304.751 704.926 365.768C766.54 397.523 846.316 413.796 914.953 402.74C1001.96 388.732 1081.53 337.172 1157.23 295.337" stroke="#4D4D4D" stroke-miterlimit="10"/>
<path d="M-401.314 195.042C-341.758 160.606 -284.197 140.759 -218.261 170.519C-168.783 192.86 -129.529 233.926 -94.0565 273.786C-40.9005 333.514 26.0953 459.35 115.513 468.786C182.821 475.893 191.32 402.386 205.741 352.758C228.039 276.051 268.186 193.816 349.001 164.222C508.24 105.886 600.318 280.81 715.213 349.163C773.273 383.703 849.163 407.353 917.073 398.895C1008.05 387.548 1086.79 321.71 1157.19 268.611" stroke="#4D4D4D" stroke-miterlimit="10"/>
<path d="M-401.314 171.537C-345.083 135.709 -289.724 110.77 -223.289 137.6C-170.05 159.11 -127.658 204.768 -91.085 247.434C-38.8017 308.43 26.9473 433.664 119.835 435.867C186.062 437.425 198.323 362.859 213.95 313.064C238.117 236.129 276.332 161.5 361.095 139.741C523.41 98.0515 613.534 257.991 729.676 334.719C786.531 372.294 862.358 403.28 931.619 393.284C1022.2 380.191 1094.97 304.897 1157.21 244.504" stroke="#4D4D4D" stroke-miterlimit="10"/>
<path d="M-401.314 150.776C-349.696 113.347 -296.083 81.9868 -230.438 103.974C-179.277 121.099 -138.984 163.037 -104.551 202.815C-48.1528 267.946 8.5775 383.807 105.663 391.205C179.475 396.817 198.655 325.076 219.893 268.32C248.86 190.886 289.237 125.318 377.948 113.326C535.213 92.0662 625.836 227.296 735.099 312.42C789.876 355.086 864.041 395.944 935.713 388.961C1030.78 379.692 1100.75 291.285 1157.21 223.514" stroke="#4D4D4D" stroke-miterlimit="10"/>
<path d="M-401.314 134.4C-349.945 98.5502 -296.976 69.0395 -232.641 89.988C-182.539 106.302 -142.662 146.391 -108.644 184.963C-53.8466 247.06 4.15129 366.267 98.4524 369.53C171.371 372.044 196.328 307.453 222.469 250.676C255.988 177.918 301.352 111.311 387.382 99.6933C539.141 79.202 633.941 205.537 741.645 286.338C794.489 325.97 869.028 366.288 936.897 364.958C1031.78 363.087 1102.06 272.83 1157.21 206.95" stroke="#4D4D4D" stroke-miterlimit="10"/>
<path d="M-401.314 123.198C-350.756 88.5955 -298.556 59.8953 -235.487 78.9734C-186.758 93.708 -147.462 131.241 -113.985 167.984C-60.0599 227.192 -2.31139 345.152 88.935 345.713C160.482 346.15 190.946 289.206 222.179 233.739C260.331 165.989 310.412 100.982 393.388 89.5931C539.66 69.5383 638.471 182.843 746.238 258.262C798.562 294.88 872.291 335.738 937.043 341.515C1031.45 349.932 1102.87 258.781 1157.19 195.271" stroke="#4D4D4D" stroke-miterlimit="10"/>
<path d="M-401.314 116.257C-352.813 83.1091 -300.966 54.4504 -240.392 69.8292C-188.752 82.922 -147.732 121.972 -112.572 159.775C-59.1248 217.238 -5.53236 323.975 83.7607 320.006C151.318 317.013 185.751 265.722 221.036 215.242C264.363 153.228 316.667 95.0796 396.006 83.8156C540.076 63.3452 641.006 161.292 753.095 231.162C804.88 263.457 870.587 301.759 930.247 317.2C1026.96 342.222 1100.6 251.591 1157.21 187.581" stroke="#4D4D4D" stroke-miterlimit="10"/>
<path d="M-401.314 112.682C-354.143 80.0333 -303.398 50.7511 -243.82 62.8671C-194.218 72.9673 -153.904 107.715 -119.346 142.609C-65.1511 197.307 -14.6965 295.545 71.812 291.7C137.436 288.791 176.898 245.605 217.046 199.074C265.152 143.336 320.677 90.3828 396.962 79.2851C534.943 59.2095 640.674 137.517 754.072 199.822C810.345 230.746 869.527 268.549 928.606 293.571C1023.72 333.867 1098.48 246.665 1157.19 183.051" stroke="#4D4D4D" stroke-miterlimit="10"/>
<path d="M-401.314 111.581C-302.068 41.2121 -216.224 41.5653 -126.1 125.006C-70.7618 176.234 -23.7359 264.164 59.7387 261.171C123.223 258.885 167.36 223.888 212.1 182.801C264.82 134.4 322.901 87.5772 396.151 76.6873C527.629 57.1312 638.949 113.763 753.365 167.485C816.35 197.058 867.304 234.154 925.967 270.128C1018.61 326.926 1094.22 245.834 1157.23 180.889" stroke="#4D4D4D" stroke-miterlimit="10"/>
<path d="M-401.314 112.059C-308.946 44.3917 -223.934 31.2574 -132.459 106.572C-75.6659 153.332 -31.9234 229.935 48.164 228.356C181.511 225.737 263.635 95.1211 393.969 75.4196C518.818 56.5493 636.102 90.0087 750.934 134.337C821.13 161.437 865.33 199.822 922.268 246.644C1011.58 320.089 1087.49 248.245 1157.21 180.141" stroke="#4D4D4D" stroke-miterlimit="10"/>
<path d="M-401.314 113.222C-316.842 48.8391 -232.495 21.5729 -140.23 85.3535C-83.1884 124.777 -41.3576 190.657 32.3502 193.192C164.887 197.785 263.511 93.9574 390.707 74.1103C506.765 56.009 630.803 66.0468 742.767 99.6309C822.481 123.551 863.189 167.048 919.379 225.114C940.367 246.811 963.974 269.401 995.498 272.809C1058.21 279.563 1116.88 217.404 1157.21 180.079" stroke="#4D4D4D" stroke-miterlimit="10"/>
<path d="M-401.314 114.178C-322.723 51.8734 -238.771 12.2832 -144.449 64.4466C-86.0977 96.7214 -45.5137 151.503 24.0796 155.556C153.562 163.1 262.638 93.708 387.195 74.3597C498.931 57.0066 625.545 42.5421 737.136 66.4832C822.979 84.8963 861.589 136.249 913.623 201.879C933.551 227.026 956.119 255.955 989.056 263.852C1052.68 279.106 1115.46 216.406 1157.19 179.85" stroke="#4D4D4D" stroke-miterlimit="10"/>
<path d="M-401.314 114.012C-324.614 50.8342 -239.373 1.93365 -140.625 44.08C-86.7834 67.0651 -46.7189 109.191 13.1907 115.051C141.946 127.666 259.022 93.4378 384.743 74.9832C450.991 65.2571 516.262 55.6141 581.948 42.3759C633.006 32.0887 682.629 26.7476 734.538 34.1877C824.226 47.0311 862.109 111.123 908.615 180.952C927.234 208.904 949.615 243.61 983.445 254.729C1048.28 276.051 1112.95 215.367 1157.21 178.52" stroke="#4D4D4D" stroke-miterlimit="10"/>
<path d="M-401.314 111.851C-327.44 49.047 -242.158 -9.14327 -141.186 17.7697C-87.6562 32.0471 -44.4539 65.2571 11.175 72.2815C138.081 88.2838 255.656 91.9207 382.457 74.2558C449.598 64.9038 512.542 51.1252 576.587 28.9298C625.899 11.8468 673.215 -2.16044 726.081 1.58036C820.215 8.23067 858.451 83.9403 900.947 157.468C919.047 188.787 940.908 229.083 975.985 244.317C1042.07 273.017 1110.16 212.707 1157.25 175.361" stroke="#4D4D4D" stroke-miterlimit="10"/>
<path d="M-401.314 106.801C-328.479 43.415 -243.529 -21.3217 -141.353 -11.5125C-86.4925 -6.25455 -36.2872 19.6817 18.178 27.7036C142.673 46.0543 252.185 87.9305 380.067 72.323C447.728 64.0517 508.531 46.3868 569.501 16.1695C615.425 -6.58706 659.189 -29.6138 711.805 -30.2788C814.085 -31.5257 852.716 57.8171 893.903 136.623C911.69 170.665 933.073 214.951 969.314 233.198C1036.56 267.073 1107.46 207.407 1157.21 169.438" stroke="#4D4D4D" stroke-miterlimit="10"/>
<path d="M-401.314 97.9683C-326.983 32.5251 -241.805 -36.4303 -138.63 -43.2469C-83.0014 -46.9254 -24.4424 -30.3827 29.6903 -19.1603C151.442 6.06931 252.809 82.8181 382.104 68.8524C448.58 61.6825 507.285 40.0482 563.017 3.55466C607.986 -25.8938 649.193 -57.462 705.03 -60.7248C809.534 -66.814 847.812 36.9517 885.944 115.696C904.064 153.083 924.865 198.305 962.228 220.438C1029.33 260.174 1106.69 197.39 1157.21 159.982" stroke="#4D4D4D" stroke-miterlimit="10"/>
<path d="M-401.314 84.4183C-274.118 -27.3069 -140.064 -113.449 33.0983 -71.5939C156.367 -41.7921 251.313 74.1103 385.055 63.1789C452.819 57.63 509.903 30.4261 561.459 -12.6555C601.835 -46.385 637.806 -83.3774 692.894 -89.3419C797.96 -100.71 836.466 5.57055 872.478 84.2105C892.136 127.126 913.415 180.806 956.077 206.368C1024.86 247.58 1104.74 184.256 1157.19 146.1" stroke="#4D4D4D" stroke-miterlimit="10"/>
<path d="M-401.314 66.0053C-278.918 -38.5709 -121.466 -154.245 49.7641 -106.279C169.958 -72.6122 260.768 55.5934 392.868 48.8183C458.929 45.4308 515.056 13.7795 561.688 -31.0685C598.676 -66.6269 631.738 -106.737 686.141 -112.763C786.925 -123.965 827.946 -19.0564 863.459 55.531C884.718 100.15 906.994 154.766 950.716 182.219C1020.72 226.174 1101.58 166.155 1157.19 127.417" stroke="#4D4D4D" stroke-miterlimit="10"/>
<path d="M-401.314 46.7609C-278.482 -53.3678 -117.227 -163.929 51.3019 -122.406C175.173 -91.8981 273.298 35.3307 407.414 26.6229C468.197 22.6743 519.129 -6.85721 561.812 -48.5048C595.871 -81.7356 625.732 -119.601 675.46 -127.727C774.644 -143.937 823.644 -36.3888 862.129 34.9358C884.24 75.8768 908.22 123.323 948.347 149.737C1018.52 195.936 1097.49 144.791 1157.21 106.344" stroke="#4D4D4D" stroke-miterlimit="10"/>
<path d="M-401.314 27.5166C-276.155 -69.0792 -107.044 -175.9 60.2374 -133.338C181.865 -102.393 285.974 13.738 417.223 6.60966C473.184 3.57546 522.184 -26.247 561.313 -64.1954C592.671 -94.5998 620.579 -130.823 665.631 -140.362C763.257 -161.02 819.405 -52.6405 861.922 15.0265C887.481 55.6973 914.205 100.462 958.093 123.468C1027.54 159.858 1096.61 119.686 1157.21 83.7117" stroke="#4D4D4D" stroke-miterlimit="10"/>
<path d="M-401.314 8.27224C-272.144 -85.3101 -98.9191 -183.589 68.1963 -142.191C188.66 -112.348 297.196 -4.82056 426.428 -13.653C478.483 -17.2068 522.974 -43.3716 560.171 -78.3481C591.445 -107.755 619.54 -143.604 664.218 -151.855C757.043 -169.021 817.514 -67.2504 862.815 -4.19709C888.811 31.9848 916.366 68.894 955.994 90.8192C1024.94 128.934 1094.43 94.0405 1157.21 59.7914" stroke="#4D4D4D" stroke-miterlimit="10"/>
<path d="M-401.314 -10.9721C-271.25 -98.5692 -103.428 -183.132 59.6556 -152.395C185.875 -128.599 299.938 -23.1089 432.496 -32.3986C482.764 -35.9315 525.571 -61.5768 562.186 -94.5374C592.131 -121.513 619.332 -152.603 660.83 -160.438C746.736 -176.669 810.698 -89.0093 857.911 -31.7335C888.811 5.77838 922.579 46.948 968.816 66.13C1034.19 93.2508 1098.55 64.2803 1157.23 34.8943" stroke="#4D4D4D" stroke-miterlimit="10"/>
<path d="M-401.314 -30.2164C-268.009 -112.639 -96.7164 -188.265 64.8506 -157.362C188.016 -133.795 307.69 -40.1919 436.507 -49.6894C530.06 -56.5891 570.893 -148.301 655.22 -166.88C740.004 -185.543 809.036 -102.954 861.153 -49.5023C892.489 -17.3522 925.198 16.4189 967.506 33.8759C1033.01 60.8928 1096.57 36.9309 1157.19 9.29056" stroke="#4D4D4D" stroke-miterlimit="10"/>
<path d="M-401.314 -49.4608C-264.497 -125.96 -96.4463 -188.057 63.6038 -162.308C187.766 -142.337 309.643 -57.4827 438.211 -67.1049C526.527 -73.7136 573.74 -156.115 655.261 -172.097C734.746 -187.663 803.134 -122.095 857.724 -74.1916C891.43 -44.5977 926.112 -13.5491 968.566 2.88965C1033.59 28.0777 1095.78 8.75024 1157.23 -16.6664" stroke="#4D4D4D" stroke-miterlimit="10"/>
</g>
</g>
<defs>
<clipPath id="clip0_26_2163">
<rect width="1560" height="1042" fill="white" transform="translate(-402 -186)"/>
</clipPath>
</defs>
</svg>
